<?xml version="1.0" encoding="UTF-8"?>
<!DOCTYPE svg PUBLIC "-//W3C//DTD SVG 1.1//EN" "http://www.w3.org/Graphics/SVG/1.1/DTD/svg11.dtd">
<!-- Creator: CorelDRAW X7 -->
<svg xmlns="http://www.w3.org/2000/svg" xml:space="preserve" width="241.171mm" height="65.0184mm" version="1.1" style="shape-rendering:geometricPrecision; text-rendering:geometricPrecision; image-rendering:optimizeQuality; fill-rule:evenodd; clip-rule:evenodd"
viewBox="0 0 24117 6502"
 xmlns:xlink="http://www.w3.org/1999/xlink">
 <defs>
  <style type="text/css">
   <![CDATA[
    .fil1 {fill:none}
    .fil0 {fill:#2B2A29;fill-rule:nonzero}
   ]]>
  </style>
 </defs>
 <g id="Layer_x0020_1">
  <metadata id="CorelCorpID_0Corel-Layer"/>
  <path class="fil0" d="M3798 4539l0 -2285 -828 1661 -473 0 -828 -1661 0 2285 -882 0 0 -3818 957 0 990 1995 994 -1995 952 0 0 3818 -882 0zm16488 0l0 -489 392 0 0 489 -392 0zm719 0l0 -1573 479 0 0 1573 -479 0zm0 -1753l0 -434 479 0 0 434 -479 0zm2325 1753l-480 0 0 -884c0,-104 -19,-179 -58,-226 -39,-47 -90,-71 -154,-71 -34,0 -68,7 -102,21 -34,14 -67,34 -99,59 -32,25 -60,54 -85,88 -25,34 -45,71 -59,111l0 902 -479 0 0 -1573 431 0 0 263c58,-94 140,-166 246,-217 106,-51 228,-76 365,-76 102,0 184,18 246,55 62,37 110,85 144,144 34,59 56,123 67,193 11,70 17,138 17,204l0 1007zm-17967 424c71,25 138,43 201,54 63,11 119,16 170,16 103,0 184,-36 241,-107 58,-72 110,-201 156,-387l-1075 -2823 887 0 656 2086 565 -2086 806 0 -1075 3280c-75,233 -210,422 -403,567 -194,145 -423,217 -689,217 -71,0 -144,-6 -217,-18 -74,-13 -148,-33 -223,-62l0 -737zm3016 -424l0 -3818 2591 0 0 775 -1710 0 0 822 1409 0 0 715 -1409 0 0 1506 -881 0zm3661 53c-290,0 -510,-90 -659,-271 -148,-181 -223,-447 -223,-799l0 -1806 860 0 0 1618c0,172 34,304 103,395 68,92 164,137 290,137 115,0 226,-30 333,-91 108,-61 203,-167 285,-317l0 -1742 860 0 0 1855c0,86 14,146 41,180 27,34 74,55 142,62l0 726c-82,17 -152,29 -209,34 -58,6 -110,9 -156,9 -309,0 -484,-121 -527,-361l-16 -172c-129,187 -290,324 -482,412 -191,87 -406,131 -642,131zm3629 0c-240,0 -477,-38 -710,-115 -233,-77 -430,-189 -591,-336l306 -527c172,118 340,209 503,274 163,65 320,97 470,97 112,0 198,-20 258,-59 61,-40 92,-97 92,-172 0,-76 -39,-136 -116,-181 -77,-44 -212,-92 -406,-142 -190,-54 -350,-106 -481,-156 -131,-50 -237,-106 -320,-167 -82,-60 -141,-130 -177,-209 -36,-79 -54,-172 -54,-280 0,-143 29,-274 86,-392 58,-119 136,-219 237,-301 100,-83 219,-147 357,-194 138,-46 288,-70 449,-70 212,0 410,29 594,86 185,58 363,162 535,312l-333 516c-161,-111 -305,-192 -430,-242 -126,-50 -248,-75 -366,-75 -93,0 -172,19 -236,56 -65,38 -97,98 -97,181 0,78 35,138 105,177 70,39 200,82 389,129 201,54 371,108 509,161 138,54 250,114 336,180 86,67 148,143 188,229 39,86 59,188 59,306 0,280 -104,502 -312,667 -208,165 -489,247 -844,247zm2919 0c-236,0 -449,-38 -637,-115 -188,-77 -347,-182 -478,-315 -131,-132 -231,-286 -299,-459 -68,-174 -102,-356 -102,-546 0,-204 34,-397 102,-578 68,-181 167,-340 296,-476 129,-136 288,-244 476,-323 188,-78 402,-118 642,-118 240,0 454,40 640,118 186,79 344,186 473,320 129,135 227,290 293,465 66,176 100,361 100,554 0,50 -2,100 -6,148 -3,48 -9,91 -16,126l-2086 0c14,190 83,335 207,433 124,99 264,148 422,148 126,0 247,-30 363,-91 117,-61 195,-144 234,-248l731 205c-111,222 -283,403 -516,543 -233,139 -513,209 -839,209zm597 -1731c-18,-179 -82,-321 -193,-425 -112,-104 -250,-156 -414,-156 -169,0 -308,53 -417,159 -109,106 -173,247 -191,422l1215 0z"/>
  <polygon class="fil1" points="0,0 24117,0 24117,6502 0,6502 "/>
 </g>
</svg>
